<svg xmlns="http://www.w3.org/2000/svg" viewBox="0 0 388.24 181.86"><defs><style>.cls-1{fill:#0062a8;fill-rule:evenodd;}</style></defs><g id="Layer_2" data-name="Layer 2"><g id="Layer_1-2" data-name="Layer 1"><path class="cls-1" d="M280.53,170.06a6.52,6.52,0,0,0-3-.82h-.1a6.43,6.43,0,0,0-3,.82,6,6,0,0,0-2.36,2.41,7.06,7.06,0,0,0-.82,3.18,7.63,7.63,0,0,0,.82,3.19,5.58,5.58,0,0,0,2.36,2.3,7.74,7.74,0,0,0,3,.72,7.06,7.06,0,0,0,3.18-.82,5.21,5.21,0,0,0,2.3-2.36,6.44,6.44,0,0,0,.83-3,7.84,7.84,0,0,0-.83-3.28A5.85,5.85,0,0,0,280.53,170.06Zm1.39,8.1a4.76,4.76,0,0,1-1.9,1.9,5.61,5.61,0,0,1-2.56.67,6.39,6.39,0,0,1-2.62-.77,4.11,4.11,0,0,1-1.79-1.89,4.93,4.93,0,0,1-.62-2.42,6,6,0,0,1,.72-2.61,4.55,4.55,0,0,1,1.9-2,5.32,5.32,0,0,1,2.45-.61h0a5.55,5.55,0,0,1,2.52.76,4.82,4.82,0,0,1,1.9,1.9,6.14,6.14,0,0,1,.71,2.61A6,6,0,0,1,281.92,178.16Z"/><path class="cls-1" d="M278.64,176.37a2.69,2.69,0,0,0-.52-.41,2,2,0,0,0,2-1.9,2.25,2.25,0,0,0-.46-1,2,2,0,0,0-.82-.67,6.44,6.44,0,0,0-1.69-.2h-2.31V179H276v-3h.57a1.27,1.27,0,0,1,.82.3,6.22,6.22,0,0,1,1.17,1.59l.62,1.08h1.38l-.87-1.29A12.62,12.62,0,0,0,278.64,176.37Zm-1.39-1.23H276v-2h1.18a2.92,2.92,0,0,1,1.18.21c.1,0,.31.2.41.3a.82.82,0,0,1,.2.52,1.55,1.55,0,0,1-.41.76A3.08,3.08,0,0,1,277.25,175.14Z"/><polygon class="cls-1" points="194.33 18.85 238.72 88.74 330.27 88.74 274.48 0 112.38 0 57.27 88.74 149.53 88.74 194.33 18.85"/><polygon class="cls-1" points="0 180.96 89.73 180.96 120.52 133.76 29.31 133.76 0 180.96"/><polygon class="cls-1" points="358.57 133.76 266.85 133.76 297.13 180.96 388.24 180.96 358.57 133.76"/><path class="cls-1" d="M205.19,107h-.86a20.73,20.73,0,0,0-2.32-.15h-7.95v4.33h10.41a6.13,6.13,0,0,0,.72-.14c.29-.15.59-.43.59-.58a4.57,4.57,0,0,0,.14-1.44,2.92,2.92,0,0,0-.14-1.3A2.84,2.84,0,0,0,205.19,107Z"/><polygon class="cls-1" points="259.85 106.41 256.24 113.5 264.76 113.5 261 106.41 259.85 106.41"/><path class="cls-1" d="M332.43,92.17H55.14L31.45,130.33h325ZM105.3,120.72l-1.59-3.17H91.28l-1.45,3.17H83.18l10-18.64H102l9.83,18.64Zm24.44,0-8.39-7.22h-3v7.22h-5.64V102.08h5.64v6.79h3l7.37-6.94h8.82l-10.84,9.25,11.71,9.54Zm26.6,0L148,113.5h-3v7.22h-5.63V102.08h5.63v6.79h3l7.37-6.94h8.82l-10.84,9.25,11.7,9.54Zm30.35,0H165.87V102.08h20.68v4.33H171.37v2.75h14.45v4H171.37v3h15.32Zm24.72-9.54a2.65,2.65,0,0,1-1,1.45,4.38,4.38,0,0,1-2.16.87,3,3,0,0,1,2.45,1,2.19,2.19,0,0,1,.58,1.31,16.43,16.43,0,0,1,.14,3.18v1.73h-5.49v-1c0-1-.14-1.73-.14-2.16-.15-.44-.3-.87-.59-1a.85.85,0,0,0-.86-.42c-.29,0-1.16-.15-2.32-.15h-7.95v4.76h-5.63V102.08H202c3.18,0,5.21.15,5.93.15a5.44,5.44,0,0,1,1.88.57,4.69,4.69,0,0,1,1.45,1.88,16.07,16.07,0,0,1,.43,3.47A14.85,14.85,0,0,1,211.41,111.18Zm34,9.54h-5.63l.14-13.87H239l-7.09,13.87h-4.77l-7.08-13.87h-1l.15,13.87h-5.5V102.08H224l5.49,12.29,5.64-12.29h10.26Zm22.85,0-1.6-3.17H254.2l-1.44,3.17h-6.65l10-18.64h8.82l9.83,18.64Zm33.39,0h-10l-9.83-13.87h-.72l.13,13.87H275.6V102.08h9.83L295.26,116h.58V102.08h5.78Z"/><polygon class="cls-1" points="96.92 106.41 93.31 113.5 101.83 113.5 98.08 106.41 96.92 106.41"/></g></g></svg>