<svg id="Layer_1" data-name="Layer 1" xmlns="http://www.w3.org/2000/svg" viewBox="0 0 310.11 81.08"><defs><style>.cls-1{fill:#00a79d;}.cls-2{fill:#004d5d;}.cls-3{fill:#a8dcd9;}.cls-4{fill:#97a8ac;}.cls-5{fill:#171f29;}</style></defs><polygon class="cls-1" points="0 7.26 0 72.83 11.76 79.4 11.76 26.3 34.55 39.39 45.26 33.12 0 7.26"/><polygon class="cls-2" points="23.24 60.03 23.31 33.7 23.31 33.66 12.39 27.4 12.39 27.4 12.39 79.4 69.14 46.61 69.19 33.34 23.24 60.03"/><polygon class="cls-3" points="23.91 46.32 23.91 46.32 23.88 58.92 68.87 32.79 12.06 0 0.43 6.71 46.67 33.11 23.91 46.32"/><path class="cls-4" d="M97.8,80.41l5.83-12.63a.33.33,0,0,1,.32-.2h.18a.31.31,0,0,1,.32.2l5.78,12.63a.33.33,0,0,1-.32.48h-1.63a.55.55,0,0,1-.55-.37l-.91-2h-5.61l-.92,2a.56.56,0,0,1-.54.37H98.11A.32.32,0,0,1,97.8,80.41Zm8.1-4L104,72.29H104l-1.83,4.12Z" transform="translate(-3.58)"/><path class="cls-4" d="M114,68.12a.35.35,0,0,1,.36-.35h1.72a.36.36,0,0,1,.36.35V78.64h4.78a.36.36,0,0,1,.36.36v1.54a.36.36,0,0,1-.36.35h-6.86a.36.36,0,0,1-.36-.35Z" transform="translate(-3.58)"/><path class="cls-4" d="M125.28,68.12a.36.36,0,0,1,.35-.35h1.79a.35.35,0,0,1,.35.35v7.67a2.73,2.73,0,1,0,5.46,0V68.12a.35.35,0,0,1,.35-.35h1.79a.36.36,0,0,1,.35.35v7.8a5.22,5.22,0,0,1-10.44,0Z" transform="translate(-3.58)"/><path class="cls-4" d="M142.12,67.86a.32.32,0,0,1,.34-.28h.3a.34.34,0,0,1,.32.19l4.12,8.85h.06l4.13-8.85a.31.31,0,0,1,.32-.19h.3a.31.31,0,0,1,.33.28l2.22,12.6a.33.33,0,0,1-.34.43h-1.71a.39.39,0,0,1-.35-.28l-1.11-7.11H151l-3.28,7.37a.32.32,0,0,1-.32.21h-.34a.32.32,0,0,1-.31-.21l-3.32-7.37h-.06l-1.09,7.11a.37.37,0,0,1-.34.28h-1.68a.34.34,0,0,1-.36-.43Z" transform="translate(-3.58)"/><path class="cls-4" d="M159.19,68.12a.36.36,0,0,1,.36-.35h1.75a.36.36,0,0,1,.35.35V80.54a.37.37,0,0,1-.35.35h-1.75a.37.37,0,0,1-.36-.35Z" transform="translate(-3.58)"/><path class="cls-4" d="M167.13,67.92a.35.35,0,0,1,.36-.34H168l7.81,8.29h0V68.12a.35.35,0,0,1,.36-.35h1.73a.36.36,0,0,1,.35.35V80.74a.35.35,0,0,1-.35.34h-.45l-7.84-8.61h0v8.07a.36.36,0,0,1-.36.35h-1.7a.37.37,0,0,1-.36-.35Z" transform="translate(-3.58)"/><path class="cls-4" d="M183.32,68.12a.36.36,0,0,1,.35-.35h1.79a.35.35,0,0,1,.35.35v7.67a2.73,2.73,0,1,0,5.46,0V68.12a.35.35,0,0,1,.36-.35h1.78a.35.35,0,0,1,.35.35v7.8a5.22,5.22,0,0,1-10.44,0Z" transform="translate(-3.58)"/><path class="cls-4" d="M200.24,67.86a.32.32,0,0,1,.34-.28h.3a.34.34,0,0,1,.32.19l4.12,8.85h.06l4.12-8.85a.32.32,0,0,1,.32-.19h.3a.32.32,0,0,1,.34.28l2.21,12.6a.32.32,0,0,1-.33.43h-1.71a.41.41,0,0,1-.36-.28l-1.1-7.11h-.06l-3.28,7.37a.32.32,0,0,1-.32.21h-.34a.33.33,0,0,1-.32-.21l-3.32-7.37h-.05l-1.09,7.11a.37.37,0,0,1-.34.28h-1.69a.34.34,0,0,1-.35-.43Z" transform="translate(-3.58)"/><path class="cls-5" d="M119.94,36.61a9.1,9.1,0,0,0,2-5.74,9.26,9.26,0,0,0-9.25-9.25H97.06V53.13h17.23a9.21,9.21,0,0,0,5.65-16.52Zm-5.65,11.11H102.47V40.08h11.82a3.85,3.85,0,0,1,3.85,3.84A3.78,3.78,0,0,1,114.29,47.72Zm-1.59-13H102.47V27H112.7a3.84,3.84,0,0,1,3.84,3.84A3.78,3.78,0,0,1,112.7,34.67Z" transform="translate(-3.58)"/><path class="cls-5" d="M142.15,21a16.38,16.38,0,1,0,16.38,16.38A16.4,16.4,0,0,0,142.15,21Zm11,16.38a11,11,0,1,1-11-11A11,11,0,0,1,153.12,37.38Z" transform="translate(-3.58)"/><polygon class="cls-5" points="179.24 42.91 162.78 21.55 158.35 21.55 158.35 53.06 163.76 53.06 163.76 31.7 180.21 53.06 184.64 53.06 184.64 21.55 179.24 21.55 179.24 42.91"/><polygon class="cls-5" points="210.35 42.91 193.9 21.55 189.47 21.55 189.47 53.06 194.88 53.06 194.88 31.7 211.33 53.06 215.76 53.06 215.76 21.55 210.35 21.55 210.35 42.91"/><polygon class="cls-5" points="220.45 53.06 243.39 53.06 243.39 47.65 225.85 47.65 225.85 40.01 242.22 40.01 242.22 34.6 225.85 34.6 225.85 26.96 243.39 26.96 243.39 21.55 220.45 21.55 220.45 53.06"/><polygon class="cls-5" points="252.76 21.55 247.35 21.55 247.35 53.06 270.68 53.06 270.68 47.65 252.76 47.65 252.76 21.55"/><polygon class="cls-5" points="279.21 47.65 279.21 21.55 273.81 21.55 273.81 53.06 297.13 53.06 297.13 47.65 279.21 47.65"/><path class="cls-5" d="M307.27,19.54a6.34,6.34,0,0,1,4.6,1.92,6.27,6.27,0,0,1,1.36,2.06,6.67,6.67,0,0,1,0,4.92,5.88,5.88,0,0,1-1.41,2,6.26,6.26,0,0,1-2.1,1.39,6.34,6.34,0,0,1-2.43.48,6.08,6.08,0,0,1-2.46-.5,6.32,6.32,0,0,1-2.09-1.44,6.1,6.1,0,0,1-1.37-2.05,6.39,6.39,0,0,1-.47-2.41,6.59,6.59,0,0,1,.23-1.71,7.15,7.15,0,0,1,.7-1.62,6.21,6.21,0,0,1,2.3-2.28A6.33,6.33,0,0,1,307.27,19.54Zm0,1.07a5.39,5.39,0,0,0-2,.38,5.12,5.12,0,0,0-1.69,1.13,5.62,5.62,0,0,0-1.21,1.78,5.26,5.26,0,0,0,0,4.07,5.09,5.09,0,0,0,1.14,1.7,5.36,5.36,0,0,0,1.75,1.2,5.1,5.1,0,0,0,2,.42,5.2,5.2,0,0,0,2-.41,5.81,5.81,0,0,0,1.78-1.16A5.16,5.16,0,0,0,312.22,28a5.1,5.1,0,0,0,.41-2,5.78,5.78,0,0,0-.38-2.11,5.33,5.33,0,0,0-5-3.33Zm-2.67,1.66h2.79a4.13,4.13,0,0,1,2.28.52,1.71,1.71,0,0,1,.76,1.53,1.84,1.84,0,0,1-.41,1.2,2.06,2.06,0,0,1-1.15.68l1.6,3.18h-1.93l-1.36-2.91h-.86v2.91h-1.72Zm1.72,1.1v2.06h.86a2,2,0,0,0,1.11-.24.86.86,0,0,0,.36-.76.91.91,0,0,0-.38-.8,2.17,2.17,0,0,0-1.18-.26Z" transform="translate(-3.58)"/></svg>